<?xml version="1.0" encoding="UTF-8"?>
<svg width="40px" height="28px" viewBox="0 0 40 28" version="1.1" xmlns="http://www.w3.org/2000/svg" xmlns:xlink="http://www.w3.org/1999/xlink">
    <!-- Generator: Sketch 43.1 (39012) - http://www.bohemiancoding.com/sketch -->
    <title>法务</title>
    <desc>Created with Sketch.</desc>
    <defs>
        <ellipse id="path-1" cx="20" cy="3" rx="3" ry="3"></ellipse>
    </defs>
    <g id="弹窗" stroke="none" stroke-width="1" fill="none" fill-rule="evenodd">
        <g id="工作台" transform="translate(-784.000000, -490.000000)">
            <g id="Group-Copy-6" transform="translate(390.000000, 357.000000)">
                <g id="Group-6" transform="translate(203.000000, 132.000000)">
                    <g id="法务" transform="translate(191.000000, 1.000000)">
                        <rect id="Rectangle-478" fill="#000000" x="2.5" y="2" width="35" height="2"></rect>
                        <rect id="Rectangle-478-Copy" fill="#000000" x="19" y="2" width="2" height="23"></rect>
                        <rect id="Rectangle-480" stroke="#000000" stroke-width="2" x="11" y="24" width="18" height="3"></rect>
                        <g id="Oval-173">
                            <use fill="#FFFFFF" fill-rule="evenodd" xlink:href="#path-1"></use>
                            <ellipse stroke="#000000" stroke-width="2" cx="20" cy="3" rx="2" ry="2"></ellipse>
                        </g>
                        <g id="Group-12" transform="translate(0.000000, 3.000000)" stroke="#000000" stroke-width="2">
                            <path d="M1.17070571,13.5 L6.82929429,13.5 C6.41745788,14.6651924 5.30621883,15.5 4,15.5 C2.69378117,15.5 1.58254212,14.6651924 1.17070571,13.5 Z" id="Oval-173-Copy"></path>
                            <path d="M4,3.28110119 L6.63004762,11.5 L1.36995238,11.5 L4,3.28110119 Z" id="Rectangle-481"></path>
                        </g>
                        <g id="Group-12-Copy" transform="translate(32.000000, 3.000000)" stroke="#000000" stroke-width="2">
                            <path d="M1.17070571,13.5 L6.82929429,13.5 C6.41745788,14.6651924 5.30621883,15.5 4,15.5 C2.69378117,15.5 1.58254212,14.6651924 1.17070571,13.5 Z" id="Oval-173-Copy"></path>
                            <path d="M4,3.28110119 L6.63004762,11.5 L1.36995238,11.5 L4,3.28110119 Z" id="Rectangle-481"></path>
                        </g>
                    </g>
                </g>
            </g>
        </g>
    </g>
</svg>