<?xml version="1.0" encoding="UTF-8"?>
<svg width="56px" height="30px" viewBox="0 0 56 30" version="1.1" xmlns="http://www.w3.org/2000/svg" xmlns:xlink="http://www.w3.org/1999/xlink">
    <!-- Generator: Sketch 43.1 (39012) - http://www.bohemiancoding.com/sketch -->
    <title>Page 1 Copy</title>
    <desc>Created with Sketch.</desc>
    <defs></defs>
    <g id="Page-1" stroke="none" stroke-width="1" fill="none" fill-rule="evenodd">
        <g id="H5投票页面" transform="translate(-20.000000, -73.000000)" fill="#73E903">
            <g id="Page-1-Copy" transform="translate(20.000000, 73.000000)">
                <path d="M21.6462885,12.2181844 L26.7433654,12.2181844 L26.7433654,6.23783937 L21.6462885,6.23783937 L21.6462885,12.2181844 Z M20.1073654,5.51187783 L20.1073654,6.23783937 L20.1073654,12.2181844 L20.1073654,13.6702489 L20.1073654,13.9051188 L21.6462885,13.9051188 L21.6462885,13.6702489 L26.7433654,13.6702489 L26.7433654,13.9051188 L28.2822885,13.9051188 L28.2822885,13.6702489 L28.2822885,12.2181844 L28.2822885,6.23783937 L28.2822885,5.51187783 L28.2822885,4.78577489 L20.1073654,4.78577489 L20.1073654,5.51187783 Z" id="Fill-1"></path>
                <polygon id="Fill-2" points="41.3417308 6.22850679 46.6389808 6.22850679 46.6389808 5.01852376 41.3417308 5.01852376"></polygon>
                <path d="M24.9642615,9.82195984 L25.5801269,9.82195984 L25.1853,10.0964225 L25.5443192,10.6664169 L24.9642615,10.6664169 L24.9642615,9.82195984 Z M21.8997423,10.6664169 L21.8997423,11.9046804 L26.5162423,11.9046804 L26.5162423,10.6664169 L26.1837423,10.6664169 L26.4833962,10.4581307 L26.0826462,9.82195984 L26.2949346,9.82195984 L26.2949346,8.58355486 L24.9642615,8.58355486 L24.9642615,7.79127545 L26.5162423,7.79127545 L26.5162423,6.55301188 L24.9642615,6.55301188 L23.4253385,6.55301188 L21.8997423,6.55301188 L21.8997423,7.79127545 L23.4253385,7.79127545 L23.4253385,8.58355486 L22.12105,8.58355486 L22.12105,9.82195984 L23.4253385,9.82195984 L23.4253385,10.6664169 L21.8997423,10.6664169 Z" id="Fill-3"></path>
                <path d="M16.2144231,9.45701357 L17.8967115,9.45701357 L17.8967115,7.67618778 L16.2144231,7.67618778 L16.2144231,9.45701357 Z M13.0714231,9.45701357 L14.6755,9.45701357 L14.6755,7.67618778 L13.0714231,7.67618778 L13.0714231,9.45701357 Z M16.2144231,4.74095023 L14.6755,4.74095023 L14.6755,6.2241233 L11.5326346,6.2241233 L11.5326346,6.23783937 L11.5326346,7.67618778 L11.5326346,9.45701357 L11.5326346,10.9090781 L11.5326346,11.09375 L13.0714231,11.09375 L13.0714231,10.9090781 L14.6755,10.9090781 L14.6755,13.9051188 L16.2144231,13.9051188 L16.2144231,10.9090781 L17.8967115,10.9090781 L17.8967115,11.09375 L19.4355,11.09375 L19.4355,10.9090781 L19.4355,9.45701357 L19.4355,7.67618778 L19.4355,6.23783937 L19.4355,6.2241233 L16.2144231,6.2241233 L16.2144231,4.74095023 Z" id="Fill-4"></path>
                <path d="M31.9377154,10.694655 L31.9534654,10.694655 L31.9377154,10.7119061 L31.9377154,10.694655 Z M30.7360038,6.77850679 L31.7234077,6.77850679 L31.4988692,7.54377828 L30.9605423,7.54377828 L30.7360038,6.77850679 Z M32.6503692,12.5228507 L33.2068692,11.2140271 C32.9500231,11.0637161 32.7475615,10.8674491 32.6011,10.694655 L33.3455231,10.694655 L33.3455231,9.32304864 L31.9377154,9.32304864 L31.9377154,8.91552602 L33.48135,8.91552602 L33.48135,7.54377828 L32.7075808,7.54377828 L32.9465231,6.77850679 L33.3455231,6.77850679 L33.3455231,5.40690045 L31.9377154,5.40690045 L31.9377154,4.74089367 L30.5216962,4.74089367 L30.5216962,5.40690045 L29.1140231,5.40690045 L29.1140231,6.77850679 L29.5130231,6.77850679 L29.7518308,7.54377828 L28.9781962,7.54377828 L28.9781962,8.91552602 L30.5216962,8.91552602 L30.5216962,9.32304864 L29.1140231,9.32304864 L29.1140231,10.694655 L30.2550231,10.694655 C30.0714077,11.0016403 29.6585423,11.5740385 28.9177538,12.036991 L29.4162346,13.4982466 C29.4162346,13.4982466 30.0259077,13.124802 30.5216962,12.4216063 L30.5216962,13.9050622 L31.9377154,13.9050622 L31.9377154,11.6665158 C32.2442346,12.1810803 32.6503692,12.5228507 32.6503692,12.5228507 Z" id="Fill-5"></path>
                <path d="M34.9804,6.75489253 C36.1635346,6.61462104 37.5129192,6.06159502 37.5129192,6.06159502 L36.7931308,4.67881787 C35.5933038,5.26408371 33.6502654,5.51182127 33.6502654,5.51182127 L33.6502654,8.81329186 C33.6502654,8.81329186 33.6502654,12.0598982 32.6329769,13.0324661 L33.8849,13.9050622 C33.8849,13.9050622 34.9804,12.6752828 34.9804,8.91552602 L35.4831885,8.91552602 L35.4831885,13.9050622 L36.8992077,13.9050622 L36.8992077,8.91552602 L37.6616692,8.91552602 L37.6616692,7.54377828 L34.9804,7.54377828 L34.9804,6.75489253 Z" id="Fill-7"></path>
                <path d="M49.1424231,6.38051471 L51.5034423,6.38051471 L51.5034423,5.98175905 L49.1424231,5.98175905 L49.1424231,6.38051471 Z M50.0160769,8.15342195 L49.07875,8.15342195 C49.1019038,7.88376697 49.1194038,7.61100113 49.1307115,7.33752828 L50.0160769,7.33752828 L50.0160769,8.15342195 Z M50.0160769,10.1240102 L48.8181346,10.1240102 C48.8610769,9.87825226 48.9015962,9.62386878 48.9388846,9.36340498 L50.0160769,9.36340498 L50.0160769,10.1240102 Z M49.9778462,12.3445984 L51.3339615,12.3445984 L51.3339615,11.3339932 L49.9778462,11.3339932 L49.9778462,12.3445984 Z M51.5034423,5.02488688 L49.1424231,5.02488688 L47.8626346,5.02488688 L47.8626346,5.98175905 L47.8626346,6.38051471 L47.8626346,7.03436086 C47.8626346,7.03436086 47.8626346,10.239819 46.8283846,12.3677885 L48.0535192,13.3366799 C48.0535192,13.3366799 48.3966538,12.2743213 48.6980577,10.7641403 L48.6980577,12.3445984 L48.6980577,13.55444 L48.6980577,13.7948247 L49.9778462,13.7948247 L49.9778462,13.55444 L51.3339615,13.55444 L51.3339615,13.7948247 L52.61375,13.7948247 L52.61375,13.55444 L52.61375,12.3445984 L52.61375,11.3339932 L52.61375,10.6455034 L52.61375,10.1240102 L51.2958654,10.1240102 L51.2958654,9.36340498 L52.61375,9.36340498 L52.61375,8.15342195 L51.2958654,8.15342195 L51.2958654,7.33752828 L52.7832308,7.33752828 L52.7832308,7.27828054 L52.7832308,6.38051471 L52.7832308,5.02488688 L52.61375,5.02488688 L51.5034423,5.02488688 Z" id="Fill-9"></path>
                <path d="M45.5720192,12.244754 C45.5722885,12.298487 45.5728269,12.3523614 45.5722885,12.4060945 C45.5721538,12.4165583 45.5718846,12.4270221 45.5709423,12.4374859 C45.5635385,12.5176612 45.5109038,12.5737981 45.4371346,12.5880798 C45.3686154,12.6013716 45.2968654,12.5851103 45.2307692,12.5627687 L45.2307692,11.9578479 L45.5718846,11.9578479 L45.5718846,12.244754 L45.5720192,12.244754 Z M44.2134808,10.8379383 L44.5134038,10.8379383 L44.5134038,10.2593184 L44.2134808,10.2593184 L44.2134808,10.8379383 Z M43.2462692,10.8379383 L43.4963846,10.8379383 L43.4963846,10.2593184 L43.2462692,10.2593184 L43.2462692,10.8379383 Z M42.8957308,7.86070419 L45.0872692,7.86070419 L45.0872692,7.46194853 L42.8957308,7.46194853 L42.8957308,7.86070419 Z M45.2307692,10.8379383 L45.5718846,10.8379383 L45.5718846,10.2593184 L45.2307692,10.2593184 L45.2307692,10.8379383 Z M45.5718846,9.13926753 L42.8720385,9.13926753 C42.8790385,9.03151867 42.8840192,8.92433541 42.8880577,8.81771776 L46.3670577,8.81771776 L46.3670577,8.75847002 L46.3670577,7.86084559 L46.3670577,7.46194853 L46.3670577,6.50507636 L45.0872692,6.50507636 L42.8957308,6.50507636 L41.6159423,6.50507636 L41.6159423,7.46194853 L41.6159423,7.86084559 L41.6159423,8.5384474 L41.6053077,8.53929581 C41.6053077,8.53929581 41.5377308,10.3724406 41.1741346,11.7533795 L40.9701923,11.1418128 L38.0812115,12.205444 L38.4729423,13.3796521 L40.9338462,12.473685 C40.8680192,12.6266827 40.7964038,12.7644089 40.7175192,12.8790865 L41.9427885,13.8479779 C41.9427885,13.8479779 42.0992115,13.3584417 42.2853846,12.6149463 L42.2853846,13.8482607 L43.2462692,13.8482607 L43.2462692,11.9578479 L43.49625,11.9578479 L43.49625,13.662599 L44.2134808,13.662599 L44.2134808,11.9578479 L44.5135385,11.9578479 L44.5135385,13.662599 L45.2307692,13.662599 L45.2307692,12.6939904 L45.4690385,13.8482607 C45.4690385,13.8482607 46.5326346,14.0460831 46.5326346,12.7996182 L46.5326346,12.244754 L46.5326346,12.0392958 L46.5326346,9.13926753 L46.3670577,9.13926753 L45.5718846,9.13926753 Z" id="Fill-11"></path>
                <path d="M38.0159635,10.3972709 L38.4076942,11.5714791 L41.1842712,10.5491374 L40.7925404,9.3750707 L40.3286558,9.54574378 L41.4578096,7.34537613 L40.388425,6.70156957 C40.2626942,6.99752545 40.1260596,7.28725962 39.9845788,7.56652998 L39.6667519,7.63313066 L40.7405788,5.16735011 L39.4103096,4.71528563 C38.897425,6.85230486 38.1583865,7.9481759 38.1583865,7.9481759 L38.1600019,7.94860011 L38.1583865,7.94888292 L38.3800981,9.11785916 L39.2069058,8.94478224 C38.8198865,9.56893382 38.4745981,10.0506929 38.2931365,10.2951782 L38.0159635,10.3972709 Z" id="Fill-12"></path>
                <polygon id="Fill-13" points="53.0311923 11.6957014 54.3353462 11.6957014 54.3353462 5.62754525 53.0311923 5.62754525"></polygon>
                <path d="M54.5839673,4.91367364 L54.5839673,11.9456307 C54.5836981,12.0081307 54.5731981,12.4044825 54.3448904,12.4296521 C54.0970635,12.4570843 53.2103519,12.3749293 53.2103519,12.3749293 L53.4906212,13.7948954 C53.4906212,13.7948954 55.8707558,14.1488264 55.8707558,13.0119485 L55.8707558,12.0392393 L55.8707558,11.8474972 L55.8707558,4.91367364 L54.5839673,4.91367364 Z" id="Fill-14"></path>
                <path d="M12.6020058,19.6607325 C12.292525,19.6607325 12.0613904,19.623685 11.8616212,19.5702347 C11.8224481,19.5577913 11.783275,19.5333286 11.783275,19.4879383 L11.783275,19.0847992 C11.783275,19.0271069 11.8146404,19.0066035 11.8538135,19.0066035 L11.865525,19.0066035 C12.0262558,19.0228648 12.457025,19.0559531 12.6098135,19.0559531 C12.8801212,19.0559531 12.9584673,18.9654553 12.9584673,18.7679157 C12.9584673,18.6485718 12.9036788,18.5826782 12.7000058,18.4551329 L12.1593904,18.1178874 C11.7951212,17.8913603 11.6971212,17.6323105 11.6971212,17.3318298 C11.6971212,16.8791997 11.9401019,16.5295107 12.7000058,16.5295107 C12.9859288,16.5295107 13.3815635,16.5790017 13.5303135,16.6201499 C13.5616788,16.6283512 13.5891404,16.6488546 13.5891404,16.6942449 L13.5891404,17.1096861 C13.5891404,17.146875 13.5733904,17.1796804 13.5225058,17.1796804 L13.5146981,17.1796804 C13.4049865,17.1714791 12.9506596,17.1344316 12.6842558,17.1344316 C12.4610635,17.1344316 12.3786788,17.2042845 12.3786788,17.3524745 C12.3786788,17.4677178 12.4296981,17.521168 12.6411788,17.6405119 L13.1426212,17.9244485 C13.5499673,18.154935 13.6713904,18.4264282 13.6713904,18.7597144 C13.6713904,19.1958003 13.3971788,19.6607325 12.6020058,19.6607325" id="Fill-15"></path>
                <path d="M15.942675,19.5907098 C15.860425,19.619556 15.6331942,19.6607042 15.3589827,19.6607042 C14.7635788,19.6607042 14.1995404,19.3316601 14.1995404,18.3523049 L14.1995404,17.8339225 C14.1995404,16.8545673 14.7635788,16.5296239 15.3589827,16.5296239 C15.6331942,16.5296239 15.860425,16.5707721 15.942675,16.5994768 C15.9974635,16.6160209 16.0288288,16.6322822 16.0288288,16.6899745 L16.0288288,17.0891544 C16.0288288,17.138504 16.0052712,17.1714508 15.9543865,17.1714508 L15.942675,17.1714508 C15.7937904,17.1590074 15.5782712,17.138504 15.3628865,17.138504 C15.0927135,17.138504 14.8771942,17.2865526 14.8771942,17.8339225 L14.8771942,18.3523049 C14.8771942,18.8995334 15.0927135,19.0477234 15.3628865,19.0477234 C15.5782712,19.0477234 15.7937904,19.0270786 15.942675,19.0147766 L15.9543865,19.0147766 C16.0052712,19.0147766 16.0288288,19.0477234 16.0288288,19.097073 L16.0288288,19.4962528 C16.0288288,19.5536623 15.9974635,19.5744485 15.942675,19.5907098" id="Fill-16"></path>
                <path d="M18.1043423,17.4923218 C18.1043423,17.241332 17.9201885,17.1260888 17.5911885,17.1260888 C17.5364,17.1260888 17.3327269,17.1344316 17.2856115,17.1385322 L17.2856115,17.9284078 C17.3286885,17.9325085 17.52065,17.9367506 17.5637269,17.9367506 C17.9751115,17.9367506 18.1043423,17.825608 18.1043423,17.5459135 L18.1043423,17.4923218 Z M18.8093231,19.623685 L18.21015,19.623685 C18.1669385,19.623685 18.1513231,19.5825368 18.1318038,19.5413886 L17.6068038,18.5003818 L17.5637269,18.5044825 C17.4814769,18.5044825 17.3600538,18.4962811 17.2856115,18.4962811 L17.2856115,19.5413886 C17.2856115,19.5867788 17.2503423,19.623685 17.2072654,19.623685 L16.6980154,19.623685 C16.6549385,19.623685 16.6198038,19.5867788 16.6198038,19.5413886 L16.6198038,16.780642 C16.6198038,16.6406533 16.6745923,16.6036058 16.7960154,16.582961 C16.9762654,16.5541148 17.3091692,16.5295107 17.5911885,16.5295107 C18.2571308,16.5295107 18.7702846,16.7640979 18.7702846,17.4923218 L18.7702846,17.5459135 C18.7702846,17.9819994 18.5508615,18.249392 18.2649385,18.3687359 L18.8564385,19.5290865 C18.8642462,19.5456307 18.86815,19.5620334 18.86815,19.5744768 C18.86815,19.6031816 18.8525346,19.623685 18.8093231,19.623685 L18.8093231,19.623685 Z" id="Fill-17"></path>
                <path d="M21.0492558,19.6072822 C20.9120827,19.627927 20.7124481,19.6607325 20.2893519,19.6607325 C19.7840058,19.6607325 19.3374865,19.5249859 19.3374865,18.7761171 L19.3374865,17.4100255 C19.3374865,16.6611567 19.7879096,16.5295107 20.2932558,16.5295107 C20.7163519,16.5295107 20.9120827,16.5624576 21.0492558,16.582961 C21.1041788,16.5911623 21.1276019,16.6118071 21.1276019,16.6652574 L21.1276019,17.0478931 C21.1276019,17.0932834 21.0923327,17.1301895 21.0492558,17.1301895 L20.2540827,17.1301895 C20.0700635,17.1301895 20.0034288,17.1960831 20.0034288,17.4100255 L20.0034288,17.7844598 L21.018025,17.7844598 C21.0609673,17.7844598 21.0962365,17.8215074 21.0962365,17.8667562 L21.0962365,18.2575933 C21.0962365,18.3028422 21.0609673,18.3398897 21.018025,18.3398897 L20.0034288,18.3398897 L20.0034288,18.7761171 C20.0034288,18.9900594 20.0700635,19.0559531 20.2540827,19.0559531 L21.0492558,19.0559531 C21.0923327,19.0559531 21.1276019,19.0928592 21.1276019,19.1382494 L21.1276019,19.5208852 C21.1276019,19.5744768 21.1041788,19.5989395 21.0492558,19.6072822" id="Fill-18"></path>
                <path d="M23.4771923,19.6072822 C23.3400192,19.627927 23.1403846,19.6607325 22.7172885,19.6607325 C22.2119423,19.6607325 21.7654231,19.5249859 21.7654231,18.7761171 L21.7654231,17.4100255 C21.7654231,16.6611567 22.2158462,16.5295107 22.7211923,16.5295107 C23.1442885,16.5295107 23.3400192,16.5624576 23.4771923,16.582961 C23.5321154,16.5911623 23.5555385,16.6118071 23.5555385,16.6652574 L23.5555385,17.0478931 C23.5555385,17.0932834 23.5202692,17.1301895 23.4771923,17.1301895 L22.6820192,17.1301895 C22.498,17.1301895 22.4313654,17.1960831 22.4313654,17.4100255 L22.4313654,17.7844598 L23.4459615,17.7844598 C23.4889038,17.7844598 23.5241731,17.8215074 23.5241731,17.8667562 L23.5241731,18.2575933 C23.5241731,18.3028422 23.4889038,18.3398897 23.4459615,18.3398897 L22.4313654,18.3398897 L22.4313654,18.7761171 C22.4313654,18.9900594 22.498,19.0559531 22.6820192,19.0559531 L23.4771923,19.0559531 C23.5202692,19.0559531 23.5555385,19.0928592 23.5555385,19.1382494 L23.5555385,19.5208852 C23.5555385,19.5744768 23.5321154,19.5989395 23.4771923,19.6072822" id="Fill-19"></path>
                <path d="M26.3595231,19.6237132 L25.9756,19.6237132 C25.89335,19.6237132 25.8346577,19.6073105 25.7719269,19.4963094 L24.8788885,17.8751273 C24.8631385,17.8502404 24.8553308,17.842039 24.8436192,17.842039 C24.8319077,17.842039 24.8239654,17.8502404 24.8239654,17.8751273 L24.8239654,19.5414169 C24.8239654,19.5866657 24.7888308,19.6237132 24.7456192,19.6237132 L24.2834846,19.6237132 C24.2404077,19.6237132 24.2051385,19.5866657 24.2051385,19.5414169 L24.2051385,16.7228365 C24.2051385,16.6364395 24.2717731,16.5665865 24.3540231,16.5665865 L24.7496577,16.5665865 C24.8280038,16.5665865 24.8671769,16.6077347 24.9141577,16.6941318 L25.8424654,18.3894089 C25.8580808,18.4138716 25.8621192,18.4222144 25.8738308,18.4222144 C25.8816385,18.4222144 25.89335,18.4138716 25.89335,18.3851669 L25.89335,16.6447822 C25.89335,16.599392 25.9286192,16.5665865 25.9716962,16.5665865 L26.4339654,16.5665865 C26.4770423,16.5665865 26.5123115,16.599392 26.5123115,16.6447822 L26.5123115,19.4673218 C26.5123115,19.5537189 26.4417731,19.6237132 26.3595231,19.6237132" id="Fill-20"></path>
                <path d="M30.3580846,16.6283088 L29.9938154,19.3234446 C29.96245,19.561991 29.8410269,19.636086 29.6333154,19.636086 L29.4101231,19.636086 C29.2378154,19.636086 29.1006423,19.5660916 29.0497577,19.35625 L28.7402769,18.1260464 C28.7324692,18.0929581 28.7246615,18.0929581 28.7051423,18.0929581 C28.6854885,18.0929581 28.6815846,18.0929581 28.6736423,18.1260464 L28.3641615,19.35625 C28.3134115,19.5660916 28.1762385,19.636086 28.0039308,19.636086 L27.7807385,19.636086 C27.5730269,19.636086 27.4516038,19.561991 27.4202385,19.3234446 L27.0559692,16.6283088 L27.0559692,16.6201075 C27.0559692,16.5789593 27.0872,16.5665158 27.1187,16.5665158 L27.6513731,16.5665158 C27.6827385,16.5665158 27.7100654,16.5994627 27.7139692,16.6447115 L27.9372962,18.8501697 C27.9412,18.8873586 27.9451038,18.9036199 27.9607192,18.9036199 C27.9725654,18.9036199 27.9803731,18.8873586 27.9883154,18.8501697 L28.2702,17.7186652 C28.3093731,17.5622738 28.4073731,17.5211256 28.5131808,17.5211256 L28.9008731,17.5211256 C29.0066808,17.5211256 29.1045462,17.5622738 29.1437192,17.7186652 L29.4257385,18.8501697 C29.4336808,18.8873586 29.4413538,18.9036199 29.4532,18.9036199 C29.46895,18.9036199 29.4728538,18.8873586 29.4767577,18.8501697 L29.69995,16.6447115 C29.7039885,16.5994627 29.7313154,16.5665158 29.7626808,16.5665158 L30.2953538,16.5665158 C30.3268538,16.5665158 30.3580846,16.5789593 30.3580846,16.6201075 L30.3580846,16.6283088 Z" id="Fill-21"></path>
                <path d="M32.3391923,17.4923218 C32.3391923,17.241332 32.1550385,17.1260888 31.8259038,17.1260888 C31.7711154,17.1260888 31.5675769,17.1344316 31.5204615,17.1385322 L31.5204615,17.9284078 C31.5635385,17.9325085 31.7555,17.9367506 31.7985769,17.9367506 C32.2098269,17.9367506 32.3391923,17.825608 32.3391923,17.5459135 L32.3391923,17.4923218 Z M33.0441731,19.623685 L32.4448654,19.623685 C32.4019231,19.623685 32.3861731,19.5825368 32.3665192,19.5413886 L31.8417885,18.5003818 L31.7985769,18.5044825 C31.7163269,18.5044825 31.5949038,18.4962811 31.5204615,18.4962811 L31.5204615,19.5413886 C31.5204615,19.5867788 31.4851923,19.623685 31.4421154,19.623685 L30.933,19.623685 C30.8897885,19.623685 30.8546538,19.5867788 30.8546538,19.5413886 L30.8546538,16.780642 C30.8546538,16.6406533 30.9094423,16.6036058 31.0308654,16.582961 C31.2109808,16.5541148 31.5440192,16.5295107 31.8259038,16.5295107 C32.4919808,16.5295107 33.005,16.7640979 33.005,17.4923218 L33.005,17.5459135 C33.005,17.9819994 32.7857115,18.249392 32.4996538,18.3687359 L33.0912885,19.5290865 C33.0990962,19.5456307 33.103,19.5620334 33.103,19.5744768 C33.103,19.6031816 33.0873846,19.623685 33.0441731,19.623685 L33.0441731,19.623685 Z" id="Fill-22"></path>
                <path d="M34.2696846,19.6237132 L33.7448192,19.6237132 C33.7016077,19.6237132 33.6742808,19.5866657 33.6742808,19.5414169 L33.6742808,16.6447822 C33.6742808,16.599392 33.7016077,16.5665865 33.7448192,16.5665865 L34.2696846,16.5665865 C34.3127615,16.5665865 34.3441269,16.599392 34.3441269,16.6447822 L34.3441269,19.5414169 C34.3441269,19.5866657 34.3127615,19.6237132 34.2696846,19.6237132" id="Fill-23"></path>
                <path d="M36.8936346,17.1468184 L36.2590577,17.1468184 L36.2590577,19.5414734 C36.2590577,19.5867223 36.2237885,19.6237698 36.1807115,19.6237698 L35.6676923,19.6237698 C35.6244808,19.6237698 35.5893462,19.5867223 35.5893462,19.5414734 L35.5893462,17.1468184 L34.9507308,17.1468184 C34.9076538,17.1468184 34.8723846,17.1138716 34.8723846,17.0684813 L34.8723846,16.6446974 C34.8723846,16.5994485 34.9076538,16.5665017 34.9507308,16.5665017 L36.8936346,16.5665017 C36.9367115,16.5665017 36.9758846,16.5994485 36.9758846,16.6446974 L36.9758846,17.0684813 C36.9758846,17.1138716 36.9367115,17.1468184 36.8936346,17.1468184" id="Fill-24"></path>
                <path d="M38.0995192,19.6237132 L37.5746538,19.6237132 C37.5314423,19.6237132 37.5041154,19.5866657 37.5041154,19.5414169 L37.5041154,16.6447822 C37.5041154,16.599392 37.5314423,16.5665865 37.5746538,16.5665865 L38.0995192,16.5665865 C38.1425962,16.5665865 38.1739615,16.599392 38.1739615,16.6447822 L38.1739615,19.5414169 C38.1739615,19.5866657 38.1425962,19.6237132 38.0995192,19.6237132" id="Fill-25"></path>
                <path d="M41.0330577,19.6237132 L40.6491346,19.6237132 C40.5668846,19.6237132 40.5081923,19.6073105 40.4455962,19.4963094 L39.5524231,17.8751273 C39.5368077,17.8502404 39.5288654,17.842039 39.5171538,17.842039 C39.5053077,17.842039 39.4976346,17.8502404 39.4976346,17.8751273 L39.4976346,19.5414169 C39.4976346,19.5866657 39.4623654,19.6237132 39.4192885,19.6237132 L38.9570192,19.6237132 C38.9139423,19.6237132 38.8786731,19.5866657 38.8786731,19.5414169 L38.8786731,16.7228365 C38.8786731,16.6364395 38.9451731,16.5665865 39.0275577,16.5665865 L39.4231923,16.5665865 C39.5014038,16.5665865 39.5405769,16.6077347 39.5876923,16.6941318 L40.516,18.3894089 C40.5316154,18.4138716 40.5356538,18.4222144 40.5473654,18.4222144 C40.5551731,18.4222144 40.5668846,18.4138716 40.5668846,18.3851669 L40.5668846,16.6447822 C40.5668846,16.599392 40.6021538,16.5665865 40.6452308,16.5665865 L41.1075,16.5665865 C41.1505769,16.5665865 41.1858462,16.599392 41.1858462,16.6447822 L41.1858462,19.4673218 C41.1858462,19.5537189 41.1153077,19.6237132 41.0330577,19.6237132" id="Fill-26"></path>
                <path d="M43.8290865,17.1755515 L43.817375,17.1755515 C43.6294519,17.1672087 43.3355865,17.142746 43.0025481,17.142746 C42.6853942,17.142746 42.4895288,17.3030967 42.4895288,17.8421239 L42.4895288,18.3565469 C42.4895288,18.9242788 42.7362788,19.0559248 42.9282404,19.0559248 C43.0378173,19.0559248 43.1358173,19.0518241 43.2297788,19.0436227 L43.2297788,18.0972144 C43.2297788,18.0518241 43.2611442,18.014918 43.3042212,18.014918 L43.8055288,18.014918 C43.8487404,18.014918 43.883875,18.0518241 43.883875,18.0972144 L43.883875,19.4797087 C43.883875,19.537401 43.8643558,19.5620051 43.8055288,19.5744485 C43.5940481,19.619556 43.3199712,19.6607042 42.9282404,19.6607042 C42.4815865,19.6607042 41.811875,19.3933117 41.811875,18.3523049 L41.811875,17.8421239 C41.811875,16.7929157 42.4347404,16.5296239 43.0025481,16.5296239 C43.3944135,16.5296239 43.6762981,16.591134 43.8212788,16.6242223 C43.8604519,16.6322822 43.8879135,16.6488264 43.8879135,16.6858739 L43.8879135,17.1219598 C43.8879135,17.1672087 43.8643558,17.1755515 43.8290865,17.1755515" id="Fill-27"></path>
                <path d="M12.8958173,22.1119344 C12.887875,22.0707862 12.8800673,22.0501414 12.8449327,22.0501414 C12.8096635,22.0501414 12.7978173,22.0707862 12.7900096,22.1119344 L12.5510673,23.2475396 L13.1347596,23.2475396 L12.8958173,22.1119344 Z M14.0121827,24.5598982 L13.4637596,24.5598982 C13.4245865,24.5598982 13.3932212,24.5270928 13.3854135,24.4859446 L13.2443365,23.8113122 L12.4414904,23.8113122 L12.3004135,24.4859446 C12.2926058,24.5270928 12.2612404,24.5598982 12.2220673,24.5598982 L11.6736442,24.5598982 C11.6344712,24.5598982 11.6070096,24.5354355 11.6070096,24.4942873 C11.6070096,24.4900452 11.6110481,24.4818439 11.6110481,24.4736425 L12.1946058,21.9224548 C12.2846635,21.527517 12.574625,21.4658654 12.8449327,21.4658654 C13.1151058,21.4658654 13.4010288,21.527517 13.4912212,21.9224548 L14.0747788,24.4736425 C14.0747788,24.4818439 14.0788173,24.4900452 14.0788173,24.4942873 C14.0788173,24.5354355 14.0513558,24.5598982 14.0121827,24.5598982 L14.0121827,24.5598982 Z" id="Fill-28"></path>
                <path d="M17.6191885,21.5645503 L17.2549192,24.2598275 C17.2235538,24.4983739 17.1021308,24.5723275 16.8945538,24.5723275 L16.6712269,24.5723275 C16.4989192,24.5723275 16.3617462,24.5024745 16.3108615,24.2926329 L16.0013808,23.0622879 C15.9935731,23.0293411 15.9857654,23.0293411 15.9661115,23.0293411 C15.9465923,23.0293411 15.9426885,23.0293411 15.9347462,23.0622879 L15.6254,24.2926329 C15.5745154,24.5024745 15.4373423,24.5723275 15.2650346,24.5723275 L15.0417077,24.5723275 C14.8341308,24.5723275 14.7127077,24.4983739 14.6813423,24.2598275 L14.3170731,21.5645503 L14.3170731,21.556349 C14.3170731,21.5152008 14.3484385,21.5028988 14.3798038,21.5028988 L14.9124769,21.5028988 C14.9437077,21.5028988 14.9711692,21.5358456 14.9750731,21.5810945 L15.1984,23.7864112 C15.2023038,23.8236001 15.2062077,23.8400028 15.2218231,23.8400028 C15.2336692,23.8400028 15.2414769,23.8236001 15.2494192,23.7864112 L15.5313038,22.6549067 C15.5704769,22.4985153 15.6684769,22.4573671 15.77415,22.4573671 L16.1619769,22.4573671 C16.2677846,22.4573671 16.36565,22.4985153 16.4048231,22.6549067 L16.6868423,23.7864112 C16.6947846,23.8236001 16.7025923,23.8400028 16.7143038,23.8400028 C16.7300538,23.8400028 16.7339577,23.8236001 16.7378615,23.7864112 L16.9610538,21.5810945 C16.9650923,21.5358456 16.9924192,21.5028988 17.0237846,21.5028988 L17.5564577,21.5028988 C17.5878231,21.5028988 17.6191885,21.5152008 17.6191885,21.556349 L17.6191885,21.5645503 Z" id="Fill-29"></path>
                <path d="M19.098975,22.1119344 C19.0910327,22.0707862 19.083225,22.0501414 19.0480904,22.0501414 C19.0128212,22.0501414 19.000975,22.0707862 18.9931673,22.1119344 L18.754225,23.2475396 L19.3379173,23.2475396 L19.098975,22.1119344 Z M20.2153404,24.5598982 L19.6669173,24.5598982 C19.6277442,24.5598982 19.5963788,24.5270928 19.5885712,24.4859446 L19.4474942,23.8113122 L18.6446481,23.8113122 L18.5035712,24.4859446 C18.4957635,24.5270928 18.4643981,24.5598982 18.425225,24.5598982 L17.8768019,24.5598982 C17.8376288,24.5598982 17.8101673,24.5354355 17.8101673,24.4942873 C17.8101673,24.4900452 17.8142058,24.4818439 17.8142058,24.4736425 L18.3977635,21.9224548 C18.4878212,21.527517 18.7777827,21.4658654 19.0480904,21.4658654 C19.3182635,21.4658654 19.6041865,21.527517 19.6943788,21.9224548 L20.2779365,24.4736425 C20.2779365,24.4818439 20.281975,24.4900452 20.281975,24.4942873 C20.281975,24.5354355 20.2545135,24.5598982 20.2153404,24.5598982 L20.2153404,24.5598982 Z" id="Fill-30"></path>
                <path d="M22.2711058,22.4287189 C22.2711058,22.1777291 22.0869519,22.0624859 21.7579519,22.0624859 C21.7031635,22.0624859 21.4994904,22.0708286 21.452375,22.0747879 L21.452375,22.8648049 C21.4954519,22.8689055 21.6874135,22.8731476 21.7304904,22.8731476 C22.141875,22.8731476 22.2711058,22.7620051 22.2711058,22.4821691 L22.2711058,22.4287189 Z M22.9760865,24.5599406 L22.3769135,24.5599406 C22.3337019,24.5599406 22.3180865,24.5187924 22.2985673,24.4776442 L21.7735673,23.4367788 L21.7304904,23.4408795 C21.6482404,23.4408795 21.5268173,23.4326782 21.452375,23.4326782 L21.452375,24.4776442 C21.452375,24.5230345 21.4171058,24.5599406 21.3740288,24.5599406 L20.8647788,24.5599406 C20.8217019,24.5599406 20.7865673,24.5230345 20.7865673,24.4776442 L20.7865673,21.7168976 C20.7865673,21.5770503 20.8413558,21.5400028 20.9627788,21.5192166 C21.1430288,21.4905119 21.4759327,21.4657664 21.7579519,21.4657664 C22.4238942,21.4657664 22.9370481,21.7004949 22.9370481,22.4287189 L22.9370481,22.4821691 C22.9370481,22.9183965 22.717625,23.185789 22.4317019,23.3049915 L23.0232019,24.4653422 C23.0310096,24.4818863 23.0349135,24.4984304 23.0349135,24.5107325 C23.0349135,24.5395786 23.0192981,24.5599406 22.9760865,24.5599406 L22.9760865,24.5599406 Z" id="Fill-31"></path>
                <path d="M25.1337288,22.7660633 C25.1337288,22.2104921 24.9066327,22.0624434 24.5539404,22.0624434 C24.456075,22.0624434 24.3307481,22.0666855 24.275825,22.0707862 L24.275825,23.9921663 C24.3307481,23.996267 24.456075,24.0003676 24.5539404,24.0003676 C24.9066327,24.0003676 25.1337288,23.8524604 25.1337288,23.2968891 L25.1337288,22.7660633 Z M24.5539404,24.5969457 C24.2288442,24.5969457 23.8801904,24.5641403 23.7197288,24.5354355 C23.6451519,24.5229921 23.6061135,24.4859446 23.6061135,24.3913462 L23.6061135,21.6716063 C23.6061135,21.5770079 23.6451519,21.5399604 23.7197288,21.527517 C23.8801904,21.4988122 24.2288442,21.4658654 24.5539404,21.4658654 C25.3334981,21.4658654 25.803575,21.8978507 25.803575,22.7660633 L25.803575,23.2968891 C25.803575,24.1651018 25.3334981,24.5969457 24.5539404,24.5969457 L24.5539404,24.5969457 Z" id="Fill-32"></path>
                <path d="M13.3854404,27.7228931 C13.3854404,27.2292562 13.2287481,27.0192732 12.8997481,27.0192732 C12.5706135,27.0192732 12.4179596,27.2292562 12.4179596,27.7228931 L12.4179596,28.2125707 C12.4179596,28.7062076 12.5706135,28.9160492 12.8997481,28.9160492 C13.2287481,28.9160492 13.3854404,28.7062076 13.3854404,28.2125707 L13.3854404,27.7228931 Z M12.8997481,29.5334135 C12.253325,29.5334135 11.7401712,29.1671804 11.7401712,28.2125707 L11.7401712,27.7228931 C11.7401712,26.7682834 12.253325,26.4020503 12.8997481,26.4020503 C13.5460365,26.4020503 14.0591904,26.7682834 14.0591904,27.7228931 L14.0591904,28.2125707 C14.0591904,29.1671804 13.5460365,29.5334135 12.8997481,29.5334135 L12.8997481,29.5334135 Z" id="Fill-33"></path>
                <path d="M16.3969346,27.0069005 L15.6017615,27.0069005 C15.4177423,27.0069005 15.3511077,27.0727941 15.3511077,27.2867364 L15.3511077,27.6570701 L16.3655692,27.6570701 C16.4086462,27.6570701 16.4439154,27.6939762 16.4439154,27.7393665 L16.4439154,28.1302036 C16.4439154,28.1754525 16.4086462,28.2125 16.3655692,28.2125 L15.3511077,28.2125 L15.3511077,29.4139989 C15.3511077,29.4593891 15.3158385,29.4962952 15.2727615,29.4962952 L14.7635115,29.4962952 C14.7204346,29.4962952 14.6851654,29.4593891 14.6851654,29.4139989 L14.6851654,27.2867364 C14.6851654,26.538009 15.1355885,26.4062217 15.6409346,26.4062217 C16.0640308,26.4062217 16.2597615,26.4390271 16.3969346,26.4598133 C16.4518577,26.4678733 16.4752808,26.4885181 16.4752808,26.5421097 L16.4752808,26.9246041 C16.4752808,26.9698529 16.4400115,27.0069005 16.3969346,27.0069005" id="Fill-34"></path>
                <path d="M19.9802212,29.4633626 C19.8979712,29.4922087 19.6707404,29.5333569 19.3965288,29.5333569 C18.801125,29.5333569 18.2370865,29.2041714 18.2370865,28.2248162 L18.2370865,27.7064338 C18.2370865,26.7270786 18.801125,26.4021352 19.3965288,26.4021352 C19.6707404,26.4021352 19.8979712,26.4432834 19.9802212,26.4721295 C20.0350096,26.4885322 20.066375,26.504935 20.066375,26.5624859 L20.066375,26.9616657 C20.066375,27.0110153 20.0428173,27.0439621 19.9919327,27.0439621 L19.9802212,27.0439621 C19.8313365,27.0316601 19.6158173,27.0110153 19.4004327,27.0110153 C19.1302596,27.0110153 18.9147404,27.1592053 18.9147404,27.7064338 L18.9147404,28.2248162 C18.9147404,28.7720447 19.1302596,28.9202347 19.4004327,28.9202347 C19.6158173,28.9202347 19.8313365,28.8997313 19.9802212,28.8874293 L19.9919327,28.8874293 C20.0428173,28.8874293 20.066375,28.9202347 20.066375,28.9697257 L20.066375,29.3687641 C20.066375,29.426315 20.0350096,29.4469598 19.9802212,29.4633626" id="Fill-35"></path>
                <path d="M22.8860154,29.496366 L22.3728615,29.496366 C22.3297846,29.496366 22.2945154,29.4593184 22.2945154,29.4140696 L22.2945154,28.2248727 L21.3270346,28.2248727 L21.3270346,29.4140696 C21.3270346,29.4593184 21.2917654,29.496366 21.2486885,29.496366 L20.7355346,29.496366 C20.6924577,29.496366 20.6571885,29.4593184 20.6571885,29.4140696 L20.6571885,26.5172936 C20.6571885,26.4720447 20.6924577,26.4390979 20.7355346,26.4390979 L21.2486885,26.4390979 C21.2917654,26.4390979 21.3270346,26.4720447 21.3270346,26.5172936 L21.3270346,27.6117506 L22.2945154,27.6117506 L22.2945154,26.5172936 C22.2945154,26.4720447 22.3297846,26.4390979 22.3728615,26.4390979 L22.8860154,26.4390979 C22.9290923,26.4390979 22.9643615,26.4720447 22.9643615,26.5172936 L22.9643615,29.4140696 C22.9643615,29.4593184 22.9290923,29.496366 22.8860154,29.496366" id="Fill-36"></path>
                <path d="M24.2640462,29.496366 L23.7391808,29.496366 C23.6961038,29.496366 23.6686423,29.4593184 23.6686423,29.4140696 L23.6686423,26.5172936 C23.6686423,26.4720447 23.6961038,26.4390979 23.7391808,26.4390979 L24.2640462,26.4390979 C24.3071231,26.4390979 24.3384885,26.4720447 24.3384885,26.5172936 L24.3384885,29.4140696 C24.3384885,29.4593184 24.3071231,29.496366 24.2640462,29.496366" id="Fill-37"></path>
                <path d="M27.1976519,29.496366 L26.8135942,29.496366 C26.7314788,29.496366 26.6727865,29.4798218 26.6100558,29.3688207 L25.7168827,27.7476386 C25.7012673,27.7228931 25.6934596,27.7146917 25.6816135,27.7146917 C25.6699019,27.7146917 25.6620942,27.7228931 25.6620942,27.7476386 L25.6620942,29.4140696 C25.6620942,29.4593184 25.626825,29.496366 25.5837481,29.496366 L25.1214788,29.496366 C25.0784019,29.496366 25.0432673,29.4593184 25.0432673,29.4140696 L25.0432673,26.5953479 C25.0432673,26.5090922 25.1097673,26.4390979 25.1920173,26.4390979 L25.5876519,26.4390979 C25.6659981,26.4390979 25.7051712,26.480246 25.7521519,26.5666431 L26.6804596,28.2619202 C26.6962096,28.2865243 26.7001135,28.2948671 26.7119596,28.2948671 C26.7196327,28.2948671 26.7314788,28.2865243 26.7314788,28.2576782 L26.7314788,26.5172936 C26.7314788,26.4720447 26.7667481,26.4390979 26.809825,26.4390979 L27.2720942,26.4390979 C27.3150365,26.4390979 27.3504404,26.4720447 27.3504404,26.5172936 L27.3504404,29.3399745 C27.3504404,29.4263716 27.2797673,29.496366 27.1976519,29.496366" id="Fill-38"></path>
                <path d="M29.1435308,27.0480486 C29.1357231,27.0069005 29.1279154,26.9863971 29.0926462,26.9863971 C29.0573769,26.9863971 29.0455308,27.0069005 29.0378577,27.0480486 L28.7987808,28.1836538 L29.3824731,28.1836538 L29.1435308,27.0480486 Z M30.2598962,29.4962952 L29.7116077,29.4962952 C29.6724346,29.4962952 29.6410692,29.4633484 29.6332615,29.4222002 L29.4921846,28.7474265 L28.6892038,28.7474265 L28.5481269,29.4222002 C28.5404538,29.4633484 28.5089538,29.4962952 28.4697808,29.4962952 L27.9214923,29.4962952 C27.8823192,29.4962952 27.8548577,29.4715498 27.8548577,29.430543 C27.8548577,29.4263009 27.8587615,29.418241 27.8587615,29.4098982 L28.4424538,26.8588518 C28.5325115,26.4637726 28.8223385,26.402121 29.0926462,26.402121 C29.3629538,26.402121 29.6488769,26.4637726 29.7389346,26.8588518 L30.3226269,29.4098982 C30.3226269,29.418241 30.3265308,29.4263009 30.3265308,29.430543 C30.3265308,29.4715498 30.2990692,29.4962952 30.2598962,29.4962952 L30.2598962,29.4962952 Z" id="Fill-39"></path>
                <path d="M6.15728077,24.715116 L6.15728077,23.7162472 L4.72376154,23.7162472 L7.74816538,9.25725396 C7.74816538,9.25725396 6.45572308,6.22190328 6.04635769,5.33643948 C5.68195385,4.54868495 4.80224231,2.06749152 4.41791538,1.08969174 C4.42949231,1.09068156 4.44026154,1.09365102 4.45224231,1.09365102 C4.70235769,1.09365102 4.90522308,0.880274321 4.90522308,0.617265271 C4.90522308,0.354397624 4.70235769,0.141445136 4.45224231,0.141445136 C4.34966538,0.141445136 4.25597308,0.178492647 4.18031923,0.238730204 L4.18031923,8.97953903 L4.41226154,9.33474265 L5.11333846,9.55193722 L4.66722308,10.1602517 L4.68781923,10.9275028 L3.99926154,10.6704327 L3.31070385,10.9275028 L3.33089615,10.1602517 L2.88518462,9.55193722 L3.58599231,9.33474265 L3.81793462,8.97953903 L3.81793462,0.238730204 C3.74201154,0.178492647 3.64845385,0.141445136 3.54601154,0.141445136 C3.29549231,0.141445136 3.09276154,0.354397624 3.09276154,0.617265271 C3.09276154,0.880274321 3.29549231,1.09365102 3.54601154,1.09365102 C3.55974231,1.09365102 3.57253077,1.09054016 3.58599231,1.08898473 C3.21337692,2.06720871 2.35749231,4.55179581 1.99443462,5.33643948 C1.58197308,6.22600396 0.249684615,9.25725396 0.249684615,9.25725396 L3.28405,23.7162472 L1.84097308,23.7162472 L1.84097308,24.715116 L-2.69230769e-05,24.715116 L-2.69230769e-05,29.4255232 L7.99760769,29.4255232 L7.99760769,24.715116 L6.15728077,24.715116 Z" id="Fill-40"></path>
            </g>
        </g>
    </g>
</svg>