<?xml version="1.0" encoding="UTF-8"?>
<svg width="100px" height="25px" viewBox="0 0 100 25" version="1.1" xmlns="http://www.w3.org/2000/svg" xmlns:xlink="http://www.w3.org/1999/xlink">
    <!-- Generator: Sketch 43.1 (39012) - http://www.bohemiancoding.com/sketch -->
    <title>Page 1</title>
    <desc>Created with Sketch.</desc>
    <defs>
        <polygon id="path-1" points="0 24.5077347 99.8163823 24.5077347 99.8163823 0.0793097527 0 0.0793097527"></polygon>
    </defs>
    <g id="Page-1" stroke="none" stroke-width="1" fill="none" fill-rule="evenodd">
        <g id="抽奖" transform="translate(-248.000000, -15.000000)">
            <g id="Page-1" transform="translate(248.000000, 15.000000)">
                <polygon id="Fill-1" fill="#74E901" points="53.2515358 14.9976104 60.4866894 14.9976104 60.4866894 12.9944435 53.2515358 12.9944435"></polygon>
                <polygon id="Fill-2" fill="#74E901" points="97.5887372 7.00570617 99.8163823 7.00570617 99.8163823 3.18011685 97.5887372 3.18011685"></polygon>
                <polygon id="Fill-3" fill="#74E901" points="38.9277474 20.3343398 35.0611945 23.9417422 33.6588055 22.3899261 37.635256 18.9040412"></polygon>
                <polygon id="Fill-4" fill="#74E901" points="61.2498976 2.34893022 57.6498976 5.24254484 56.2478498 3.69106908 59.9509215 0.760012085"></polygon>
                <polygon id="Fill-5" fill="#74E901" points="60.7580887 10.0468097 63.5222526 12.9713994 65.4038225 11.4195832 62.1969966 8.4340646"></polygon>
                <polygon id="Fill-6" fill="#74E901" points="60.4867577 14.9977806 58.8888055 16.4515658 58.8888055 17.4380021 53.3724232 17.4380021 53.3724232 19.441169 58.8888055 19.441169 58.8888055 21.4834803 57.3000683 23.0679734 58.708942 24.4727431 60.8969966 22.3204875 60.927372 21.7922096 60.927372 19.441169 63.7823208 19.441169 63.7823208 17.4380021 60.927372 17.4380021 60.927372 17.2882326 62.0191809 16.4008484 62.9355631 14.9977806"></polygon>
                <polygon id="Fill-7" fill="#74E901" points="0 5.89652694 1.40238908 7.44834309 6.71194539 2.36537083 4.93924915 0.8268297"></polygon>
                <polygon id="Fill-8" fill="#74E901" points="12.7135495 2.66586288 9.61150171 5.12378445 8.21764505 3.65638383 11.2630375 0.943854134"></polygon>
                <polygon id="Fill-9" fill="#74E901" points="7.02249147 20.9986356 4.25832765 23.9232253 2.85593857 22.3717495 5.58358362 19.3858905"></polygon>
                <g id="Group-51" transform="translate(0.000000, 0.260973)">
                    <path d="M11.9346416,4.94715856 L14.4527304,4.94715856 L14.4527304,2.94399163 L8.85375427,2.85889533 C8.62133106,3.05665914 8.38071672,3.24557293 8.1278157,3.42257323 L9.50665529,4.94715856 L11.9346416,4.94715856 Z" id="Fill-10" fill="#74E901"></path>
                    <polygon id="Fill-12" fill="#74E901" points="11.8391468 8.15089815 13.2480205 6.74612841 11.8391468 5.31106439 10.4002389 6.74612841"></polygon>
                    <polygon id="Fill-14" fill="#74E901" points="13.103686 8.29532359 11.6050512 8.29532359 5.57979522 8.29532359 3.38764505 8.29532359 3.38764505 10.3284444 7.58832765 10.3284444 7.58832765 12.3309306 5.57979522 12.3309306 5.57979522 14.3340975 7.58832765 14.3340975 7.58832765 16.3372644 5.57979522 16.3372644 5.57979522 14.3340975 3.5716041 14.3340975 3.5716041 18.3700449 4.56068259 18.3700449 5.57979522 18.3700449 7.52825939 18.3700449 7.58832765 21.9052856 7.58832765 23.7889773 9.59651877 23.7889773 9.59651877 18.3700449 12.6395222 18.3700449 11.8241638 16.3372644 9.59651877 16.3372644 9.59651877 14.3340975 11.6050512 14.3340975 11.6050512 12.3309306 9.59651877 12.3309306 9.59651877 10.3284444 11.6050512 10.3284444 11.6050512 12.3309306 13.6432765 12.3309306 13.6432765 8.29532359"></polygon>
                    <polygon id="Fill-16" fill="#74E901" points="5.57982935 5.45542175 4.17129693 6.89014539 5.57982935 8.29525551 7.0187372 6.89014539"></polygon>
                    <path d="M8.12788396,3.42240304 L5.30501706,3.25867776 L2.41969283,3.25867776 C2.15723549,3.49490509 1.98010239,3.72602664 1.76372014,3.90302695 L3.211843,5.45552387 L5.57976109,5.45552387 L8.12788396,5.45552387 L8.12788396,3.42240304 Z" id="Fill-18" fill="#74E901"></path>
                    <mask id="mask-2" fill="white">
                        <use xlink:href="#path-1"></use>
                    </mask>
                    <g id="Clip-21"></g>
                    <polygon id="Fill-20" fill="#74E901" mask="url(#mask-2)" points="9.59658703 18.3665049 11.8242321 18.3665049 11.8242321 16.3371283 9.59658703 16.3371283"></polygon>
                    <polygon id="Fill-22" fill="#74E901" mask="url(#mask-2)" points="11.8242321 23.6618775 13.8324232 23.6618775 13.8324232 16.3367879 11.8242321 16.3367879"></polygon>
                    <polygon id="Fill-23" fill="#74E901" mask="url(#mask-2)" points="18.7955631 14.1157744 29.9771331 14.1157744 29.9771331 12.1126075 18.7955631 12.1126075"></polygon>
                    <polygon id="Fill-24" fill="#74E901" mask="url(#mask-2)" points="45.0847782 12.4618768 43.7059386 13.8966004 45.0847782 15.3320048 46.523686 13.8966004"></polygon>
                    <polygon id="Fill-25" fill="#74E901" mask="url(#mask-2)" points="46.5236177 10.2121688 45.1447782 8.80705871 43.7058703 10.2121688 45.1447782 11.5873251"></polygon>
                    <polygon id="Fill-26" fill="#74E901" mask="url(#mask-2)" points="39.6540273 23.5160905 41.062901 22.0813669 39.6540273 20.6759164 38.2151195 22.0813669"></polygon>
                    <path d="M39.6540273,18.64317 L36.7465188,18.64317 L36.7465188,13.9176022 L36.7465188,11.0750453 L36.7465188,10.202638 L36.7465188,8.23487118 L36.7465188,4.72175548 L39.6540273,4.72175548 L39.6540273,18.64317 Z M41.6622184,0.715762008 L39.6540273,0.715762008 L39.6540273,2.71892894 L36.7465188,2.71892894 L36.7465188,0.715762008 L34.7379863,0.715762008 L34.7379863,2.71892894 L33.5465188,2.71892894 L33.5465188,4.72175548 L34.7379863,4.72175548 L34.7379863,18.64317 L33.9393515,18.64317 L33.9393515,20.6759504 L36.7465188,20.6759504 L39.6540273,20.6759504 L41.6622184,20.6759504 L41.6622184,19.2708403 L41.6622184,18.64317 L41.6622184,4.72175548 L43.6407167,4.72175548 L43.6407167,2.71892894 L41.6622184,2.71892894 L41.6622184,0.715762008 Z" id="Fill-27" fill="#74E901" mask="url(#mask-2)"></path>
                    <polygon id="Fill-28" fill="#74E901" mask="url(#mask-2)" points="48.5919113 2.71886086 48.5018089 2.71886086 43.6758703 2.71886086 43.6758703 4.7216874 46.553686 4.7216874 46.553686 7.75009457 48.5919113 7.75009457"></polygon>
                    <polygon id="Fill-29" fill="#74E901" mask="url(#mask-2)" points="46.5536177 7.75002649 46.5536177 20.8800454 45.144744 22.2851555 46.5536177 23.7202195 48.591843 21.7170526 48.591843 7.75002649"></polygon>
                    <polygon id="Fill-30" fill="#74E901" mask="url(#mask-2)" points="41.6676451 4.68887427 41.6676451 20.8799773 40.2587713 22.2850874 41.6676451 23.7201514 43.7058703 21.7169845 43.7058703 4.68887427"></polygon>
                    <polygon id="Fill-31" fill="#74E901" mask="url(#mask-2)" points="69.6736519 5.42199592 69.6736519 20.957517 68.0251877 22.3626272 69.6736519 23.7973508 71.7118771 21.7945243 71.7118771 5.42199592"></polygon>
                    <polygon id="Fill-32" fill="#74E901" mask="url(#mask-2)" points="39.5940273 13.6987685 38.1851536 12.2936584 36.746587 13.6987685 38.1851536 15.1338325"></polygon>
                    <polygon id="Fill-33" fill="#74E901" mask="url(#mask-2)" points="38.1851877 8.57886446 37.7435495 9.0104729 36.7466212 9.98397459 37.1882594 10.4247734 38.1851877 11.4190386 39.5940614 9.98397459"></polygon>
                    <path d="M58.265696,7.46100541 L58.1210531,7.46100541 L58.1196246,7.611869 C58.168196,7.57175703 58.2178389,7.53306496 58.265696,7.49224305 L58.265696,7.46100541 Z" id="Fill-34" fill="#74E901" mask="url(#mask-2)"></path>
                    <polygon id="Fill-35" fill="#74E901" mask="url(#mask-2)" points="56.2090785 10.0057252 54.7701706 8.57066118 53.3312628 10.0057252 54.7701706 11.4404488"></polygon>
                    <polygon id="Fill-36" fill="#74E901" mask="url(#mask-2)" points="60.0483618 5.45807676 60.0275427 4.71025046 57.9975085 4.80453716 57.9702048 5.48769027 57.4824915 5.48769027 53.1217406 5.45807676 53.1217406 7.4609033 57.9016041 7.4609033 57.9005802 7.6059074 57.9005802 11.5945412 60.0483618 11.5567585 60.0483618 9.55359154 60.0483618 7.4609033 65.0746416 7.4609033 65.0746416 5.45807676"></polygon>
                    <path d="M77.0826292,18.9116853 C77.0962006,18.8939366 77.1083435,18.875123 77.1219149,18.8573744 L77.0279863,18.8573744 L77.0826292,18.9116853 Z" id="Fill-37" fill="#74E901" mask="url(#mask-2)"></path>
                    <path d="M80.947099,14.694191 L80.4375427,14.694191 L78.9088737,14.694191 L74.8921502,14.694191 L74.8921502,16.7273118 L78.309215,16.7273118 C78.268942,16.8270447 78.2293515,16.9363084 78.1894198,17.0557836 C77.8982935,17.6940058 77.540273,18.2941049 77.1177474,18.8571021 C77.1047782,18.8744617 77.0931741,18.8921617 77.0802048,18.9095214 L77.0279863,18.8571021 L74.8921502,16.7273118 L73.4832765,18.1620355 L75.7313993,20.6230205 C75.4501706,20.8772883 74.4849829,22.0652326 74.1805461,22.2769522 L75.5460751,23.7722644 C75.8750853,23.5254851 76.8658703,22.3082677 77.1703072,22.0277902 L78.1143345,22.8351839 L79.4197952,21.5328702 L78.5491468,20.5930666 C78.9208191,20.1114215 79.2491468,19.3850395 79.5440273,18.8571021 C79.7245734,18.5333957 79.8955631,18.2042432 80.0477816,17.8631773 C80.0675768,17.8233522 80.0877133,17.7835271 80.1078498,17.7433617 C80.1276451,17.703877 80.1477816,17.6640519 80.1675768,17.6238865 L80.137884,17.6238865 C80.5372014,16.6874868 80.8071672,15.7105812 80.947099,14.694191" id="Fill-38" fill="#74E901" mask="url(#mask-2)"></path>
                    <polygon id="Fill-39" fill="#74E901" mask="url(#mask-2)" points="80.872116 8.1657049 80.872116 6.13292446 78.8335495 6.13292446 78.8335495 8.1657049 76.8253584 8.1657049 76.8253584 6.13292446 74.8168259 6.13292446 74.8168259 8.1657049 72.8086348 8.1657049 72.8086348 10.1688718 74.8168259 10.1688718 74.8168259 12.1716984 74.8168259 14.1449114 74.8168259 14.1748653 78.8335495 14.1748653 78.8335495 13.1360097 78.8335495 12.1716984 78.3946416 12.1716984 76.8253584 12.1716984 76.8253584 10.1688718 78.8335495 10.1688718 78.8335495 11.1331831 78.8335495 12.1716984 80.4028328 12.1716984 80.872116 12.1716984 80.872116 10.1688718 82.9103413 10.1688718 82.9103413 8.1657049"></polygon>
                    <polygon id="Fill-40" fill="#74E901" mask="url(#mask-2)" points="75.3072014 0.469799659 73.8682935 1.9045233 75.3072014 3.30997381 76.7160751 1.9045233"></polygon>
                    <polygon id="Fill-41" fill="#74E901" mask="url(#mask-2)" points="81.0554266 3.30987169 75.3073038 3.30987169 71.7120819 3.30987169 71.7120819 5.34265213 81.0554266 5.34265213"></polygon>
                    <path d="M91.5341297,14.8135641 L93.5423208,14.8135641 L93.5423208,12.8107376 L91.5341297,12.8107376 L91.5341297,14.8135641 Z M91.5341297,10.8075706 L93.5423208,10.8075706 L93.5423208,8.80474409 L91.5341297,8.80474409 L91.5341297,10.8075706 Z M90.6945392,16.8466849 L97.3962457,16.7506963 L97.3962457,14.8135641 L95.5805461,14.8135641 L95.5805461,12.8107376 L97.5590444,12.8107376 L97.5590444,10.8075706 L95.5805461,10.8075706 L95.5805461,8.80474409 L97.5890785,8.80474409 L97.5890785,6.80157716 L95.5805461,6.80157716 L95.5805461,4.76879672 L93.5423208,4.76879672 L93.5423208,6.80157716 L91.5341297,6.80157716 L91.5341297,4.76879672 L89.5255973,4.76879672 L89.5255973,6.80157716 L87.5174061,6.80157716 L87.5174061,8.80474409 L89.5255973,8.80474409 L89.5255973,10.8075706 L87.5174061,10.8075706 L87.5174061,12.8107376 L89.5255973,12.8107376 L89.5255973,14.8135641 L87.5174061,14.8135641 L87.5174061,16.8466849 L90.6645051,16.8466849 L90.6945392,16.8466849 Z" id="Fill-42" fill="#74E901" mask="url(#mask-2)"></path>
                    <polygon id="Fill-43" fill="#74E901" mask="url(#mask-2)" points="89.2764505 20.8945458 91.3146758 20.8945458 91.3146758 18.8018575 89.2764505 18.8018575"></polygon>
                    <polygon id="Fill-44" fill="#74E901" mask="url(#mask-2)" points="87.5174061 4.9876644 89.5255973 4.9876644 89.5255973 2.9194839 87.5174061 2.9194839"></polygon>
                    <path d="M92.2209215,20.1729291 C91.7902048,20.8928439 90.6178498,22.2421308 90.0188737,22.8258914 L91.3328669,24.2629978 C91.4830375,24.1128879 92.2878157,23.2615845 92.4308191,23.1026246 L93.869727,24.5077347 L95.2181911,23.162192 L93.6297952,21.5480854 L92.2209215,20.1729291 Z" id="Fill-45" fill="#74E901" mask="url(#mask-2)"></path>
                    <polygon id="Fill-46" fill="#74E901" mask="url(#mask-2)" points="91.3146758 16.8465147 91.3146758 18.8496817 93.3228669 18.8496817 93.3228669 20.9723238 95.3313993 20.9723238 95.3313993 18.8496817 95.3614334 16.8465147"></polygon>
                    <polygon id="Fill-47" fill="#74E901" mask="url(#mask-2)" points="96.981058 16.9626882 95.5076792 17.9464014 96.6455631 19.6030562 98.3011945 18.4978255 97.1926621 16.8466169"></polygon>
                    <polygon id="Fill-48" fill="#74E901" mask="url(#mask-2)" points="92.8526621 0.0793778297 91.4140956 1.48448795 92.8526621 2.91921159 94.2615358 1.48448795"></polygon>
                    <polygon id="Fill-49" fill="#74E901" mask="url(#mask-2)" points="99.5973038 2.91931371 97.5891126 2.91931371 92.8525939 2.91931371 89.5256314 2.91931371 89.5256314 4.92248064 97.5891126 4.92248064"></polygon>
                    <polygon id="Fill-50" fill="#74E901" mask="url(#mask-2)" points="90.0188055 17.7493525 87.5392833 20.1075412 86.1368942 18.555725 88.6450853 16.2315748"></polygon>
                </g>
            </g>
        </g>
    </g>
</svg>