<?xml version="1.0" encoding="UTF-8"?>
<svg width="85px" height="22px" viewBox="0 0 85 22" version="1.1" xmlns="http://www.w3.org/2000/svg" xmlns:xlink="http://www.w3.org/1999/xlink">
    <!-- Generator: Sketch 43.1 (39012) - http://www.bohemiancoding.com/sketch -->
    <title>Page 1</title>
    <desc>Created with Sketch.</desc>
    <defs>
        <polygon id="path-1" points="0 20.9821295 84.8439249 20.9821295 84.8439249 0.0679005025 0 0.0679005025"></polygon>
    </defs>
    <g id="Page-1" stroke="none" stroke-width="1" fill="none" fill-rule="evenodd">
        <g id="H5投票页面" transform="translate(-96.000000, -77.000000)">
            <g id="Page-1" transform="translate(96.000000, 77.000000)">
                <polygon id="Fill-1" fill="#74E901" points="45.2638055 12.8401016 51.413686 12.8401016 51.413686 11.1251039 45.2638055 11.1251039"></polygon>
                <polygon id="Fill-2" fill="#74E901" points="82.9504266 5.99788743 84.8439249 5.99788743 84.8439249 2.7226353 82.9504266 2.7226353"></polygon>
                <polygon id="Fill-3" fill="#74E901" points="33.0885853 17.409106 29.8020154 20.4975589 28.6099846 19.1689821 31.9899676 16.1845656"></polygon>
                <polygon id="Fill-4" fill="#74E901" points="52.062413 2.01102055 49.002413 4.48836892 47.8106724 3.16008356 50.9582833 0.65067915"></polygon>
                <polygon id="Fill-5" fill="#74E901" points="51.6443754 8.60150743 53.9939147 11.1053749 55.5932491 9.7767981 52.8674471 7.22076674"></polygon>
                <polygon id="Fill-6" fill="#74E901" points="51.413744 12.8402473 50.0554846 14.0848956 50.0554846 14.9294263 45.3665597 14.9294263 45.3665597 16.6444239 50.0554846 16.6444239 50.0554846 18.3929347 48.705058 19.7494877 49.9026007 20.9521717 51.7624471 19.1095327 51.7882662 18.6572513 51.7882662 16.6444239 54.2149727 16.6444239 54.2149727 14.9294263 51.7882662 14.9294263 51.7882662 14.8012021 52.7163038 14.0414742 53.4952287 12.8402473"></polygon>
                <polygon id="Fill-7" fill="#74E901" points="0 5.04827122 1.19203072 6.376848 5.70515358 2.02509606 4.19836177 0.707884594"></polygon>
                <polygon id="Fill-8" fill="#74E901" points="10.8065171 2.28236028 8.16977645 4.38669302 6.98499829 3.13038801 9.57358191 0.808074263"></polygon>
                <polygon id="Fill-9" fill="#74E901" points="5.96911775 17.9778383 3.6195785 20.4817057 2.42754778 19.1534204 4.74604608 16.5970976"></polygon>
                <g id="Group-51" transform="translate(0.000000, 0.223431)">
                    <path d="M10.1444454,4.23547598 L12.2848208,4.23547598 L12.2848208,2.52047831 L7.52569113,2.44762369 C7.3281314,2.61693782 7.12360922,2.77867507 6.90864334,2.93021267 L8.080657,4.23547598 L10.1444454,4.23547598 Z" id="Fill-10" fill="#74E901"></path>
                    <polygon id="Fill-12" fill="#74E901" points="10.0632747 6.97833572 11.2608174 5.77565171 10.0632747 4.54703146 8.84020307 5.77565171"></polygon>
                    <polygon id="Fill-14" fill="#74E901" points="11.1381331 7.10198457 9.86429352 7.10198457 4.74282594 7.10198457 2.87949829 7.10198457 2.87949829 8.84262707 6.4500785 8.84262707 6.4500785 10.5570419 4.74282594 10.5570419 4.74282594 12.2720396 6.4500785 12.2720396 6.4500785 13.9870372 4.74282594 13.9870372 4.74282594 12.2720396 3.03586348 12.2720396 3.03586348 15.7273883 3.8765802 15.7273883 4.74282594 15.7273883 6.39902048 15.7273883 6.4500785 18.7540605 6.4500785 20.3667703 8.15704096 20.3667703 8.15704096 15.7273883 10.7435939 15.7273883 10.0505392 13.9870372 8.15704096 13.9870372 8.15704096 12.2720396 9.86429352 12.2720396 9.86429352 10.5570419 8.15704096 10.5570419 8.15704096 8.84262707 9.86429352 8.84262707 9.86429352 10.5570419 11.596785 10.5570419 11.596785 7.10198457"></polygon>
                    <polygon id="Fill-16" fill="#74E901" points="4.74285495 4.67062203 3.54560239 5.89895086 4.74285495 7.10192629 5.96592662 5.89895086"></polygon>
                    <path d="M6.90870137,2.93006696 L4.50926451,2.78989468 L2.05673891,2.78989468 C1.83365017,2.99213909 1.68308703,3.19001223 1.49916212,3.34154983 L2.73006655,4.67070946 L4.74279693,4.67070946 L6.90870137,4.67070946 L6.90870137,2.93006696 Z" id="Fill-18" fill="#74E901"></path>
                    <mask id="mask-2" fill="white">
                        <use xlink:href="#path-1"></use>
                    </mask>
                    <g id="Clip-21"></g>
                    <polygon id="Fill-20" fill="#74E901" mask="url(#mask-2)" points="8.15709898 15.7243576 10.0505973 15.7243576 10.0505973 13.9869207 8.15709898 13.9869207"></polygon>
                    <polygon id="Fill-22" fill="#74E901" mask="url(#mask-2)" points="10.0505973 20.2579546 11.7575597 20.2579546 11.7575597 13.9866293 10.0505973 13.9866293"></polygon>
                    <polygon id="Fill-23" fill="#74E901" mask="url(#mask-2)" points="15.9762287 12.0851238 25.4805631 12.0851238 25.4805631 10.3701261 15.9762287 10.3701261"></polygon>
                    <polygon id="Fill-24" fill="#74E901" mask="url(#mask-2)" points="38.3220614 10.6691506 37.1500478 11.8974794 38.3220614 13.1263911 39.5451331 11.8974794"></polygon>
                    <polygon id="Fill-25" fill="#74E901" mask="url(#mask-2)" points="39.5450751 8.74307852 38.3730614 7.54010309 37.1499898 8.74307852 38.3730614 9.92040912"></polygon>
                    <polygon id="Fill-26" fill="#74E901" mask="url(#mask-2)" points="33.7059232 20.1331401 34.9034659 18.9048113 33.7059232 17.7015444 32.4828515 18.9048113"></polygon>
                    <path d="M33.7059232,15.9612225 L31.234541,15.9612225 L31.234541,11.9154599 L31.234541,9.48182433 L31.234541,8.7349188 L31.234541,7.05022865 L31.234541,4.04249867 L33.7059232,4.04249867 L33.7059232,15.9612225 Z M35.4128857,0.612794749 L33.7059232,0.612794749 L33.7059232,2.32779242 L31.234541,2.32779242 L31.234541,0.612794749 L29.5272884,0.612794749 L29.5272884,2.32779242 L28.514541,2.32779242 L28.514541,4.04249867 L29.5272884,4.04249867 L29.5272884,15.9612225 L28.8484488,15.9612225 L28.8484488,17.7015736 L31.234541,17.7015736 L33.7059232,17.7015736 L35.4128857,17.7015736 L35.4128857,16.4985981 L35.4128857,15.9612225 L35.4128857,4.04249867 L37.0946092,4.04249867 L37.0946092,2.32779242 L35.4128857,2.32779242 L35.4128857,0.612794749 Z" id="Fill-27" fill="#74E901" mask="url(#mask-2)"></path>
                    <polygon id="Fill-28" fill="#74E901" mask="url(#mask-2)" points="41.3031246 2.32773413 41.2265375 2.32773413 37.1244898 2.32773413 37.1244898 4.04244039 39.5706331 4.04244039 39.5706331 6.63519047 41.3031246 6.63519047"></polygon>
                    <polygon id="Fill-29" fill="#74E901" mask="url(#mask-2)" points="39.5705751 6.63513219 39.5705751 17.8763081 38.3730324 19.0792835 39.5705751 20.3079038 41.3030666 18.5929061 41.3030666 6.63513219"></polygon>
                    <polygon id="Fill-30" fill="#74E901" mask="url(#mask-2)" points="35.4174983 4.01434765 35.4174983 17.8762498 34.2199556 19.0792252 35.4174983 20.3078455 37.1499898 18.5928478 37.1499898 4.01434765"></polygon>
                    <polygon id="Fill-31" fill="#74E901" mask="url(#mask-2)" points="59.2226041 4.64200474 59.2226041 17.9426349 57.8214096 19.1456103 59.2226041 20.3739392 60.9550956 18.6592329 60.9550956 4.64200474"></polygon>
                    <polygon id="Fill-32" fill="#74E901" mask="url(#mask-2)" points="33.6549232 11.728107 32.4573805 10.5251316 31.234599 11.728107 32.4573805 12.9567273"></polygon>
                    <polygon id="Fill-33" fill="#74E901" mask="url(#mask-2)" points="32.4574096 7.34473615 32.0820171 7.71425477 31.234628 8.54771158 31.6100205 8.92509849 32.4574096 9.77633183 33.6549522 8.54771158"></polygon>
                    <path d="M49.5258416,6.38768877 L49.4028952,6.38768877 L49.4016809,6.5168496 C49.4429666,6.48250801 49.485163,6.44938206 49.5258416,6.41443266 L49.5258416,6.38768877 Z" id="Fill-34" fill="#74E901" mask="url(#mask-2)"></path>
                    <polygon id="Fill-35" fill="#74E901" mask="url(#mask-2)" points="47.7777167 8.56633322 46.5546451 7.33771297 45.3315734 8.56633322 46.5546451 9.79466205"></polygon>
                    <polygon id="Fill-36" fill="#74E901" mask="url(#mask-2)" points="51.0411075 4.67289509 51.0234113 4.03264873 49.2978823 4.11337164 49.2746741 4.6982485 48.8601177 4.6982485 45.1534795 4.67289509 45.1534795 6.38760134 49.2163635 6.38760134 49.2154932 6.51174561 49.2154932 9.92658719 51.0411075 9.89423974 51.0411075 8.17924207 51.0411075 6.38760134 55.3134454 6.38760134 55.3134454 4.67289509"></polygon>
                    <path d="M65.5202348,16.19111 C65.5317705,16.1759146 65.542092,16.1598075 65.5536277,16.1446121 L65.4737884,16.1446121 L65.5202348,16.19111 Z" id="Fill-37" fill="#74E901" mask="url(#mask-2)"></path>
                    <path d="M68.8050341,12.5803312 L68.3719113,12.5803312 L67.0725427,12.5803312 L63.6583276,12.5803312 L63.6583276,14.3209737 L66.5628328,14.3209737 C66.5286007,14.4063593 66.4949488,14.4999046 66.4610068,14.6021925 C66.2135495,15.1486021 65.9092321,15.6623729 65.5500853,16.144379 C65.5390614,16.1592413 65.529198,16.1743951 65.5181741,16.1892574 L65.4737884,16.144379 L63.6583276,14.3209737 L62.460785,15.5493025 L64.3716894,17.656258 C64.1326451,17.8739476 63.3122355,18.890998 63.0534642,19.0722603 L64.2141638,20.3524616 C64.4938225,20.1411832 65.3359898,19.0990708 65.5947611,18.858942 L66.3971843,19.5501866 L67.5068259,18.4352196 L66.7667747,17.6306132 C67.0826962,17.218256 67.3617747,16.596369 67.6124232,16.144379 C67.7658874,15.86724 67.9112287,15.5854384 68.0406143,15.2934371 C68.0574403,15.2593411 68.0745563,15.2252452 68.0916724,15.1908578 C68.1084983,15.1570532 68.1256143,15.1229573 68.1424403,15.0885699 L68.1172014,15.0885699 C68.4566212,14.2868777 68.6860922,13.4505067 68.8050341,12.5803312" id="Fill-38" fill="#74E901" mask="url(#mask-2)"></path>
                    <polygon id="Fill-39" fill="#74E901" mask="url(#mask-2)" points="68.7412986 6.99101242 68.7412986 5.25066134 67.0085171 5.25066134 67.0085171 6.99101242 65.3015546 6.99101242 65.3015546 5.25066134 63.594302 5.25066134 63.594302 6.99101242 61.8873396 6.99101242 61.8873396 8.70601009 63.594302 8.70601009 63.594302 10.4207163 63.594302 12.1100692 63.594302 12.135714 67.0085171 12.135714 67.0085171 11.2463049 67.0085171 10.4207163 66.6354454 10.4207163 65.3015546 10.4207163 65.3015546 8.70601009 67.0085171 8.70601009 67.0085171 9.5315986 67.0085171 10.4207163 68.3424078 10.4207163 68.7412986 10.4207163 68.7412986 8.70601009 70.4737901 8.70601009 70.4737901 6.99101242"></polygon>
                    <polygon id="Fill-40" fill="#74E901" mask="url(#mask-2)" points="64.0111212 0.402215766 62.7880495 1.6305446 64.0111212 2.83381144 65.2086638 1.6305446"></polygon>
                    <polygon id="Fill-41" fill="#74E901" mask="url(#mask-2)" points="68.8971126 2.83372402 64.0112082 2.83372402 60.9552696 2.83372402 60.9552696 4.57407509 68.8971126 4.57407509"></polygon>
                    <path d="M77.8040102,12.6825316 L79.5109727,12.6825316 L79.5109727,10.9678254 L77.8040102,10.9678254 L77.8040102,12.6825316 Z M77.8040102,9.2528277 L79.5109727,9.2528277 L79.5109727,7.53812145 L77.8040102,7.53812145 L77.8040102,9.2528277 Z M77.0903584,14.4231741 L82.7868089,14.3409941 L82.7868089,12.6825316 L81.2434642,12.6825316 L81.2434642,10.9678254 L82.9251877,10.9678254 L82.9251877,9.2528277 L81.2434642,9.2528277 L81.2434642,7.53812145 L82.9507167,7.53812145 L82.9507167,5.82312378 L81.2434642,5.82312378 L81.2434642,4.0827727 L79.5109727,4.0827727 L79.5109727,5.82312378 L77.8040102,5.82312378 L77.8040102,4.0827727 L76.0967577,4.0827727 L76.0967577,5.82312378 L74.3897952,5.82312378 L74.3897952,7.53812145 L76.0967577,7.53812145 L76.0967577,9.2528277 L74.3897952,9.2528277 L74.3897952,10.9678254 L76.0967577,10.9678254 L76.0967577,12.6825316 L74.3897952,12.6825316 L74.3897952,14.4231741 L77.0648294,14.4231741 L77.0903584,14.4231741 Z" id="Fill-42" fill="#74E901" mask="url(#mask-2)"></path>
                    <polygon id="Fill-43" fill="#74E901" mask="url(#mask-2)" points="75.8849829 17.8887225 77.6174744 17.8887225 77.6174744 16.0970818 75.8849829 16.0970818"></polygon>
                    <polygon id="Fill-44" fill="#74E901" mask="url(#mask-2)" points="74.3897952 4.27015477 76.0967577 4.27015477 76.0967577 2.49949618 74.3897952 2.49949618"></polygon>
                    <path d="M78.3877833,17.2709154 C78.0216741,17.8872654 77.0251724,19.0424482 76.5160427,19.5422309 L77.6329369,20.7725996 C77.7605819,20.6440841 78.4446433,19.9152465 78.5661962,19.7791541 L79.7892679,20.9821295 L80.9354625,19.8301523 L79.5853259,18.448246 L78.3877833,17.2709154 Z" id="Fill-45" fill="#74E901" mask="url(#mask-2)"></path>
                    <polygon id="Fill-46" fill="#74E901" mask="url(#mask-2)" points="77.6174744 14.4230284 77.6174744 16.1380261 79.3244369 16.1380261 79.3244369 17.9553116 81.0316894 17.9553116 81.0316894 16.1380261 81.0572184 14.4230284"></polygon>
                    <polygon id="Fill-47" fill="#74E901" mask="url(#mask-2)" points="82.4338993 14.5224895 81.1815273 15.3646889 82.1487287 16.7830226 83.5560154 15.8367868 82.6137628 14.4231158"></polygon>
                    <polygon id="Fill-48" fill="#74E901" mask="url(#mask-2)" points="78.9247628 0.0679587861 77.7019812 1.27093421 78.9247628 2.49926304 80.1223055 1.27093421"></polygon>
                    <polygon id="Fill-49" fill="#74E901" mask="url(#mask-2)" points="84.6577082 2.49935047 82.9507457 2.49935047 78.9247048 2.49935047 76.0967867 2.49935047 76.0967867 4.21434814 82.9507457 4.21434814"></polygon>
                    <polygon id="Fill-50" fill="#74E901" mask="url(#mask-2)" points="76.5159846 15.1959867 74.4083908 17.2149339 73.2163601 15.8863571 75.3483225 13.8965518"></polygon>
                </g>
            </g>
        </g>
    </g>
</svg>